<svg width="361" height="352" viewBox="0 0 361 352" fill="none" xmlns="http://www.w3.org/2000/svg">
<path fill-rule="evenodd" clip-rule="evenodd" d="M360.512 0.93457H345.512C330.512 0.93457 300.512 0.93457 270.512 8.13358C240.512 15.3326 210.512 29.7306 180.512 38.7294C150.512 47.7281 120.512 51.3277 90.5122 49.5279C60.5122 47.7281 30.5122 40.5291 15.5122 36.9296L0.512214 33.3301V76.5242H15.5122C30.5122 76.5242 60.5122 76.5242 90.5122 76.5242C120.512 76.5242 150.512 76.5242 180.512 76.5242C210.512 76.5242 240.512 76.5242 270.512 76.5242C300.512 76.5242 330.512 76.5242 345.512 76.5242H360.512V0.93457Z" fill="white"/>
<path d="M0.512214 76.5242H360.512V351.437H0.512207L0.512214 76.5242Z" fill="white"/>
</svg>
